<?xml version="1.0" encoding="UTF-8" standalone="no"?>
<!-- Created with Inkscape (http://www.inkscape.org/) -->

<svg
   xmlns:dc="http://purl.org/dc/elements/1.1/"
   xmlns:cc="http://creativecommons.org/ns#"
   xmlns:rdf="http://www.w3.org/1999/02/22-rdf-syntax-ns#"
   xmlns:svg="http://www.w3.org/2000/svg"
   xmlns="http://www.w3.org/2000/svg"
   xmlns:xlink="http://www.w3.org/1999/xlink"
   xmlns:sodipodi="http://sodipodi.sourceforge.net/DTD/sodipodi-0.dtd"
   xmlns:inkscape="http://www.inkscape.org/namespaces/inkscape"
   width="500"
   height="499.0928"
   id="svg3451"
   version="1.1"
   inkscape:version="0.48.5 r10040"
   sodipodi:docname="drawing.svg">
  <defs
     id="defs3453">
    <linearGradient
       x1="0"
       y1="0"
       x2="1"
       y2="0"
       gradientUnits="userSpaceOnUse"
       gradientTransform="matrix(0,129.68213,129.68213,0,426.58008,903.41211)"
       spreadMethod="pad"
       id="linearGradient36">
      <stop
         style="stop-opacity:1;stop-color:#f37636"
         offset="0"
         id="stop38" />
      <stop
         style="stop-opacity:1;stop-color:#893031"
         offset="1"
         id="stop40" />
    </linearGradient>
    <linearGradient
       x1="0"
       y1="0"
       x2="1"
       y2="0"
       gradientUnits="userSpaceOnUse"
       gradientTransform="matrix(-126.58844,0,0,-126.58849,452.71973,284.92061)"
       spreadMethod="pad"
       id="linearGradient160">
      <stop
         style="stop-opacity:1;stop-color:#ffd633"
         offset="0"
         id="stop162" />
      <stop
         style="stop-opacity:1;stop-color:#f05737"
         offset="1"
         id="stop164" />
    </linearGradient>
    <linearGradient
       x1="0"
       y1="0"
       x2="1"
       y2="0"
       gradientUnits="userSpaceOnUse"
       gradientTransform="matrix(171.61443,0,0,171.61443,236.57943,247.06583)"
       spreadMethod="pad"
       id="linearGradient180">
      <stop
         style="stop-opacity:1;stop-color:#56ba67"
         offset="0"
         id="stop182" />
      <stop
         style="stop-opacity:1;stop-color:#ffd633"
         offset="1"
         id="stop184" />
    </linearGradient>
    <linearGradient
       y2="0"
       x2="1"
       y1="0"
       x1="0"
       spreadMethod="pad"
       gradientTransform="matrix(0,-428.52635,428.52635,0,834.2983,612.93881)"
       gradientUnits="userSpaceOnUse"
       id="linearGradient3449"
       xlink:href="#linearGradient36"
       inkscape:collect="always" />
    <linearGradient
       x1="0"
       y1="0"
       x2="1"
       y2="0"
       gradientUnits="userSpaceOnUse"
       gradientTransform="matrix(35.383789,0,0,-35.383789,262.04004,955.25195)"
       spreadMethod="pad"
       id="linearGradient200">
      <stop
         style="stop-opacity:1;stop-color:#56ba67"
         offset="0"
         id="stop202" />
      <stop
         style="stop-opacity:1;stop-color:#ffd633"
         offset="1"
         id="stop204" />
    </linearGradient>
    <linearGradient
       inkscape:collect="always"
       xlink:href="#linearGradient200"
       id="linearGradient3601"
       gradientUnits="userSpaceOnUse"
       gradientTransform="matrix(35.383789,0,0,-35.383789,188.89718,944.39481)"
       spreadMethod="pad"
       x1="0"
       y1="0"
       x2="1"
       y2="0" />
  </defs>
  <sodipodi:namedview
     id="base"
     pagecolor="#ffffff"
     bordercolor="#666666"
     borderopacity="1.0"
     inkscape:pageopacity="0.0"
     inkscape:pageshadow="2"
     inkscape:zoom="1.4"
     inkscape:cx="86.881001"
     inkscape:cy="251.98425"
     inkscape:document-units="px"
     inkscape:current-layer="layer1"
     showgrid="false"
     inkscape:window-width="1855"
     inkscape:window-height="1056"
     inkscape:window-x="65"
     inkscape:window-y="24"
     inkscape:window-maximized="1"
     inkscape:snap-page="true"
     fit-margin-top="0"
     fit-margin-left="0"
     fit-margin-right="0"
     fit-margin-bottom="0" />
  <metadata
     id="metadata3456">
    <rdf:RDF>
      <cc:Work
         rdf:about="">
        <dc:format>image/svg+xml</dc:format>
        <dc:type
           rdf:resource="http://purl.org/dc/dcmitype/StillImage" />
        <dc:title></dc:title>
      </cc:Work>
    </rdf:RDF>
  </metadata>
  <g
     inkscape:label="Layer 1"
     inkscape:groupmode="layer"
     id="layer1"
     transform="translate(-95.614,-54.443908)">
    <path
       inkscape:connector-curvature="0"
       d="m 95.614,293.05073 c 0,6.9958 3.87268,8.5199 4.6472,8.5199 l 0,0 c 25.61465,-23.26105 59.75415,-53.5254 129.58225,-53.5254 l 0,0 c 18.81373,0 34.83163,1.24925 48.3485,3.1731 l 0,0 c -1.24925,-1.4991 -2.69837,-2.92325 -4.4973,-3.8227 l 0,0 c 5.12193,-4.54727 9.5193,-14.59125 1.9988,-22.06177 l 0,0 c 9.24445,-2.9982 11.96783,-13.94163 8.86968,-18.71375 l 0,0 c 8.6948,-1.4991 14.71617,-7.72038 13.39197,-16.0154 l 0,0 c 3.09813,0.0375 5.34678,-0.9994 7.02078,-2.4985 l 0,0 c -7.39555,-0.9994 -14.8161,-1.74895 -22.26163,-2.24865 l 0,0 c -10.6936,4.97202 -21.38717,12.24265 -28.47542,17.6644 l 0,0 c -1.4991,0.9994 -1.74895,3.6478 -2.74836,5.42175 l 0,0 c -0.4997,0.74955 -2.24865,1.4991 -3.09815,1.24925 l 0,0 c -5.4717,-1.9988 -11.21825,-9.0196 -11.69297,-10.24385 l 0,0 c -0.1875,-0.4997 3.44792,-4.14753 4.29743,-3.64783 l 0,0 c 0.74955,0.4997 2.24864,1.24925 3.04817,0.9994 l 0,0 c 2.54845,-0.24975 8.54487,-4.42235 12.4675,-7.84527 l 0,0 c 1.9988,-1.74895 2.54847,-3.4979 2.4985,-4.8471 l 0,0 c -2.4985,-0.0475 -4.84707,-0.0875 -7.24565,-0.0875 l 0,0 c -96.21228,0 -155.95643,83.79972 -155.95643,108.63732 m 391.84741,-72.93875 c -18.9886,0 -42.42205,-4.24745 -68.58135,-9.79412 l 0,0 c -5.1719,4.97202 -25.88948,0.4997 -24.1855,6.92085 l 0,0 c -10.24386,-1.4991 -8.4699,-0.1775 -10.81851,8.74475 l 0,0 c -1.24924,-0.74955 -2.24865,0.9994 -3.07315,2.54847 l 0,0 c -0.74955,1.9988 -1.24925,3.77275 -0.9994,1.9988 l 0,0 c -5.04697,5.4967 -5.24684,31.39868 -16.5151,48.61833 l 0,0 c 5.24685,4.37237 10.9934,9.04457 16.59005,14.0166 l 0,0 c 0.74955,-20.21288 5.39675,-26.47163 13.01721,-26.47163 l 0,0 c 10.09392,0 41.12779,18.61385 86.90034,18.61385 l 0,0 c 75.27233,0 115.62313,-45.76755 115.62313,-69.83062 l 0,0 c 0,-6.22125 -3.87267,-9.3194 -12.41755,-9.3194 l 0,0 c -18.61383,0 -36.47312,13.96662 -95.43772,13.96662 m -155.45176,106.13633 -7.24565,30.88395 -5.6716,24.21047 -7.59542,32.3481 -2.74835,11.668 c 0.24725,0.4997 0.4997,1.24925 0.9994,1.74895 l 0,0 0.015,0.0225 c 0.9994,1.99883 2.79832,4.07258 5.24685,6.29623 l 0,0 c 0.0325,0.035 0.0625,0.0625 0.09,0.08 l 0,0 c 0.4997,0.4997 1.24925,0.9994 1.9988,1.4991 l 0,0 c 0.065,0.0475 0.1225,0.105 0.18,0.1475 l 0,0 c 0.74955,0.4997 1.4991,0.9994 2.24865,1.4991 l 0,0 c 0.0775,0.0525 0.16,0.1075 0.23225,0.16 l 0,0 c 0.74955,0.4997 1.4991,0.9994 2.4985,1.4991 l 0,0 c 0.0775,0.045 0.16,0.1025 0.23725,0.1475 l 0,0 c 0.9994,0.4997 1.74895,0.9994 2.79832,1.74895 l 0,0 c 0.0375,0.025 0.07,0.035 0.1075,0.0575 l 0,0 c 1.9988,1.24925 4.29743,2.24865 6.79593,3.39797 l 0,0 c 0.105,0.0525 0.19475,0.0925 0.24975,0.1475 l 0,0 c 1.24925,0.4997 2.4985,0.9994 3.69777,1.4991 l 0,0 c 0.19,0.07 0.4997,0.1475 0.4997,0.22475 l 0,0 c 1.24925,0.4997 2.59845,0.9994 3.97263,1.4991 l 0,0 c 0.22975,0.08 0.4997,0.17 0.74955,0.24975 l 0,0 c 1.4991,0.4997 2.79832,0.9994 4.29742,1.4991 l 0,0 c 0.24975,0.08 0.4997,0.1675 0.74955,0.24725 l 0,0 c 1.4991,0.4997 3.04818,0.9994 4.69718,1.4991 l 0,0 c 0.24975,0.0675 0.4997,0.1475 0.74955,0.2225 l 0,0 c 1.4991,0.4997 3.29802,0.9994 5.04697,1.4991 l 0,0 c 0.22475,0.06 0.4997,0.1125 0.74955,0.18225 l 0,0 c 1.74895,0.4997 3.39795,0.9994 5.1469,1.24925 l 0,0 c 0.4997,0.1025 0.74956,0.20225 1.24925,0.24975 l 0,0 c 0.24975,0.0775 0.74955,0.16 0.9994,0.24475 l 0,0 c 0.4997,0.1375 1.24925,0.24975 1.74895,0.4997 l 0,0 c 0.4997,0.09 0.74955,0.1875 1.24925,0.24975 l 0,0 c 0.74955,0.1875 1.4991,0.24975 2.4985,0.4997 l 0,0 c 0.74955,0.15 1.4991,0.24975 2.24865,0.4997 l 0,0 c 0.74955,0.14 1.24925,0.24975 1.9988,0.4997 l 0,0 c 1.49913,0.24975 2.79833,0.4997 4.24748,0.74955 l 0,0 c 0.16,-0.175 0.24975,-0.24975 0.4997,-0.4997 l 0,0 c 0.005,0 0.015,0.01 0.015,0.0125 l 0,0 0.065,-19.78812 0.24975,-66.87238 0.0575,-15.71557 0.0175,-5.9964 c -6.24625,-8.41995 -25.95443,-15.54068 -44.6882,-26.5041 l 0,0 c -0.4997,-0.24975 -0.9994,-0.4997 -1.4991,-0.9994 l 0,0 -1.24925,4.87207 z m -46.3022,197.24915 c -6.97082,28.71027 -1.4991,33.37247 13.19208,27.94572 l 0,0 c 16.29022,-6.22127 68.27652,-26.39665 73.71077,-26.39665 l 0,0 c 5.42175,0 6.19628,-13.1671 6.19628,-18.61385 l 0,0 0.125,-33.78472 c -2.74835,-0.74955 -5.4717,-1.4991 -8.24505,-2.24865 l 0,0 -0.095,0.0575 c -0.115,-0.06 -0.23475,-0.115 -0.24975,-0.165 l 0,0 c -0.1175,-0.0375 -0.23975,-0.0625 -0.24975,-0.0975 l 0,0 c 0.005,-0.0175 0.005,-0.0475 0.01,-0.06 l 0,0 c -13.71678,-6.24625 -47.54148,-9.994 -66.29523,-22.9862 l 0,0 z"
       style="fill:url(#linearGradient3449);stroke:none"
       id="path42"
       sodipodi:nodetypes="cccccccccccccccccccccccccccccccccccccccccccccccccccccccccccccccccccccccccccccccccccccccccccccccccccccccccccccccccccccccccccccccccccccccccccccccccccccccccccccccccccccc" />
    <path
       inkscape:connector-curvature="0"
       d="m 405.38065,54.781208 c -3.47292,7.920252 -15.21587,8.844677 -21.23727,2.998202 l 0,0 c -4.19748,10.91845 -13.79173,10.018975 -18.96363,8.59485 l 0,0 c -1.74895,12.39255 -13.19207,15.940425 -16.8149,13.9666 l 0,0 c 2.79833,11.293225 -3.69777,16.93985 -9.94402,20.21287 l 0,0 c 6.79592,9.6692 -0.9994,20.56268 -2.24865,22.23668 l 0,0 c 4.27242,2.9982 6.72095,13.74175 3.12312,19.93803 l 0,0 c 5.44673,4.59725 7.42055,11.54307 4.59723,17.66439 l 0,0 c -0.74955,1.4991 -2.24865,-0.74955 -2.59843,-1.24925 l 0,0 c -6.54607,-10.06894 -9.46932,-8.69477 -13.94165,-0.4997 l 0,0 c -4.997,9.09455 -6.77092,4.14753 -7.44552,-0.74955 l 0,0 c -0.4997,-3.1731 -0.4997,-6.34619 -0.4997,-5.8215 l 0,0 c -4.54728,18.51388 -7.8203,49.62523 0.9994,59.9915 l 0,0 c 1.24924,1.4991 4.12252,2.97323 5.8215,1.24925 l 0,0 c 5.22187,-5.54667 6.02139,-22.21167 16.56507,-17.8393 l 0,0 c -1.4991,3.24805 1.24925,3.64783 2.79833,6.9958 l 0,0 c 0.4997,1.24925 -3.57288,1.24925 -4.62225,0.9994 l 0,0 c -0.135,0.74955 -0.4997,2.24865 -0.24975,1.4991 l 0,0 c -0.4997,16.09035 -22.38655,73.07615 -29.28993,72.48153 l 0,0 c 3.79773,5.92145 -2.7983,15.74055 -9.4943,14.76612 l 0,0 c 3.94765,9.11953 -2.89825,17.3646 -7.8203,19.23848 l 0,0 c 0.9994,2.94822 1.24925,13.91665 -8.61982,17.53947 l 0,0 c 1.4991,2.6484 2.4985,12.44253 -6.42115,18.23905 l 0,0 c 3.42295,4.87208 0.9994,12.1427 -3.12313,16.26525 l 0,0 c 4.59725,2.74835 5.92145,10.91843 0.9994,15.76553 l 0,0 c 5.69658,1.9988 5.47173,11.31822 3.02318,15.59065 l 0,0 c 4.94705,1.74895 8.14512,8.69477 6.29622,13.64182 l 0,0 c 3.32303,0.9994 5.82153,2.87328 7.5205,5.42173 l 0,0 c 1.24925,-3.17308 2.72335,-6.54605 4.84707,-10.1439 l 0,0 c 1.24925,-2.24865 2.77336,-4.39738 4.32243,-6.42115 l 0,0 c -4.57228,-10.54368 -1.9988,-23.26105 1.9988,-33.41995 l 0,0 c 4.59722,-12.24265 15.61563,-23.26105 18.38895,-26.18678 l 0,0 c 2.64843,-2.82332 6.696,-8.27005 11.54308,-15.26585 l 0,0 1.24925,-5.09695 c 0.4997,0.24975 0.9994,0.74955 1.74895,0.9994 l 0,0 c 8.79472,-12.89225 19.6632,-29.73965 29.78465,-45.19037 l 0,0 c 11.79292,-18.03918 22.58645,-34.1645 27.87825,-39.91855 l 0,0 c -0.24975,3.47292 1.99882,6.92085 5.022,8.54487 l 0,0 c 2.4985,-9.3194 9.41935,-21.06237 20.1629,-19.63822 l 0,0 c -1.74895,-6.671 -0.12501,-15.8155 5.27185,-21.03738 l 0,0 c 0.9994,-0.9994 2.24865,-1.9988 3.54785,-2.57345 l 0,0 c -5.94643,-5.29682 -11.09333,-16.96482 -2.24865,-25.6746 l 0,0 c -10.74355,-3.4979 -13.91666,-16.24025 -10.29383,-21.78692 l 0,0 c -10.11892,-1.74895 -17.1397,-8.96962 -15.59062,-18.63882 l 0,0 c -12.61745,0.1425 -13.61685,-14.3164 -12.41755,-17.46453 l 0,0 c 0.4997,-1.4991 2.24865,-3.24805 4.19747,-3.04815 l 0,0 c 2.87328,0.4997 5.72158,5.22185 4.54728,8.36998 l 0,0 c 17.41455,1.4991 41.38765,17.01477 54.54727,27.06125 l 0,0 c 1.74895,1.24925 1.9988,4.24745 3.19808,6.3212 l 0,0 c 0.49969,0.9994 2.59842,1.74897 3.59782,1.24925 l 0,0 c 6.3712,-2.4985 13.06718,-10.4937 13.59185,-11.91783 l 0,0 c 0.21225,-0.4997 -3.9976,-4.82212 -4.997,-4.24747 l 0,0 c -0.9994,0.4997 -2.59842,1.24925 -3.54787,1.24925 l 0,0 c -2.94823,-0.24975 -9.94403,-5.12193 -14.54128,-9.09453 l 0,0 c -5.54667,-4.82212 -1.24925,-9.14452 -0.9994,-8.96962 l 0,0 c -3.87267,-2.6484 -6.42115,-11.66801 -6.1713,-17.26466 l 0,0 c 0.24975,-7.170695 6.57108,-14.11652 12.8673,-15.26582 l 0,0 c -2.9982,-1.74895 -4.6972,-2.5235 -6.59605,-4.072575 l 0,0 c -5.19687,2.6734 -7.8453,8.8447 -9.46932,12.942245 l 0,0 c -1.9988,-16.21527 -7.04578,-30.916445 -17.4895,-43.873672 l 0,0 c 1.4991,14.091552 -14.91605,6.471127 -16.14033,0.74955 m 20.5127,52.511002 c 0,-2.9982 2.4985,-5.42175 5.39675,-5.42175 l 0,0 c 2.99823,0 5.42175,2.4985 5.42175,5.42175 l 0,0 c 0,2.9732 -2.4985,5.42173 -5.42175,5.42173 l 0,0 c -2.9732,0 -5.39675,-2.49851 -5.39675,-5.42173 m -85.30632,95.62762 c -0.0425,0.075 0.07,0.1425 0.24975,0.19475 l 0,0 c 0.0475,-0.24975 0.055,-0.4997 -0.015,-0.4997 l 0,0 c -0.0425,0 -0.1225,0.0775 -0.24975,0.24975 m -31.55358,213.9966 c -1.24925,1.74895 -1.74895,4.72218 -0.24975,8.44493 l 0,0 2.74835,-11.668 c -0.74955,0.9994 -1.74895,1.9988 -2.4985,3.22307 m 69.993,40.23835 c 0.0775,0.24975 0.24975,0.74955 0.4997,0.9994 l 0,0 c 0.9994,0.4997 1.9988,0.9994 2.69838,1.24925 l 0,0 c 0.74955,0.0225 1.24925,-0.1075 1.74895,-0.4997 l 0,0 c 0.4997,3.04818 3.6728,4.07255 5.29682,3.74775 l 0,0 c 0.115,0.4997 0.74955,1.74895 1.9988,2.5235 l 0,0 c 4.92205,-10.14392 -1.4991,-19.71317 -12.01777,-27.8433 l 0,0 -0.065,19.78813 z m -64.45632,17.91425 c -6.54608,7.44555 -4.39735,15.21588 -4.6722,17.46453 l 0,0 c -0.24975,1.9988 -0.4997,2.8483 -1.4991,3.57285 l 0,0 c 2.6734,1.4991 4.997,4.54727 4.29742,8.1951 l 0,0 c 2.6734,0.19725 5.3218,2.9732 5.3218,5.27182 l 0,0 c 3.89768,-0.24975 6.57108,1.9988 7.57048,3.94763 l 0,0 c 2.79832,-0.74955 5.6716,-0.1475 7.87027,2.24865 l 0,0 c 1.74895,-1.9988 5.79653,-1.9988 7.97023,-0.0225 l 0,0 c 1.24925,-2.24865 5.4717,-4.3474 7.9702,-1.9988 l 0,0 c 0.9994,-3.44793 5.022,-4.6472 7.5205,-3.04818 l 0,0 c 0.74955,-2.89825 3.44792,-5.74655 6.62102,-5.1719 l 0,0 c 0.24975,-5.57165 4.997,-7.37057 6.62103,-7.22065 l 0,0 c -0.9994,-5.54667 4.07255,-7.94525 5.72157,-8.09515 l 0,0 c -0.4997,-2.79832 1.4991,-7.97022 6.69598,-8.12012 l 0,0 c -0.74955,-0.74955 -0.74955,-1.9988 -0.74955,-3.0232 l 0,0 c 0.74955,-1.24925 1.74895,-2.69838 2.4985,-4.24745 l 0,0 c 0.22725,-0.1475 0.4997,-0.24975 0.74955,-0.4997 l 0,0 c -1.9988,-0.4997 -4.07255,-0.9994 -6.09635,-1.4991 l 0,0 c -0.4997,1.9988 -25.6571,19.06357 -30.03698,24.03557 l 0,0 c -5.89645,6.72098 -15.69057,13.54188 -27.26862,3.14813 l 0,0 c -5.42175,-4.87208 -5.27185,-14.36638 -1.24925,-19.03858 l 0,0 c 5.19687,-5.87147 12.76732,-5.47172 16.61502,-2.4985 l 0,0 c 2.59843,1.9988 4.42235,6.4961 1.4991,9.89405 l 0,0 c -3.72277,4.24745 -6.77095,3.54788 -10.1689,2.8483 l 0,0 c -1.4991,-0.24975 -1.9988,1.4991 -0.4997,2.54848 l 0,0 c 5.37178,3.84767 12.61743,2.4985 15.74055,-0.9994 l 0,0 c 2.4985,-2.82333 7.3206,-11.06838 -1.9988,-19.41335 l 0,0 c -3.62282,-3.24805 -7.9952,-4.74715 -12.3176,-4.74715 l 0,0 c -5.5217,0 -10.96842,2.4985 -14.74117,6.69597"
       style="fill:url(#linearGradient160);stroke:none"
       id="path166" />
    <path
       inkscape:connector-curvature="0"
       d="m 265.21475,161.32978 c -1.4991,-3.5229 -3.6728,-8.81972 -8.12015,-11.11835 l 0,0 c -1.4991,1.24925 -3.07315,1.9988 -5.6466,3.4979 l 0,0 c 5.42175,0.9994 10.8435,6.97083 11.06835,13.11715 l 0,0 c 0.1825,4.8221 -1.9988,12.54248 -5.3218,14.8161 l 0,0 c 0.22725,-0.0775 1.4991,0.9994 1.74895,2.8483 l 0,0 c 0.1225,1.24925 -0.24975,3.07315 -2.4985,4.84708 l 0,0 c -3.94763,3.42295 -9.94403,7.54547 -12.46753,7.8453 l 0,0 c -0.74955,0.085 -2.24865,-0.4997 -3.04817,-0.9994 l 0,0 c -0.74955,-0.4997 -4.4723,3.12312 -4.2974,3.64782 l 0,0 c 0.4997,1.24925 6.19627,8.17008 11.69297,10.24385 l 0,0 c 0.74955,0.24975 2.62343,-0.4997 3.09815,-1.24925 l 0,0 c 0.9994,-1.74895 1.24925,-4.47232 2.74835,-5.42175 l 0,0 c 7.07076,-5.39677 17.78933,-12.6674 28.47541,-17.6644 l 0,0 c 6.39617,-2.97322 12.79232,-5.14692 18.38897,-5.59665 l 0,0 c -0.9994,-2.69837 1.4991,-6.72097 3.92265,-7.19567 l 0,0 c 1.74895,-0.185 3.1731,1.4991 3.62283,2.59842 l 0,0 c 0.74955,1.9988 0.4997,8.81973 -3.64783,12.54248 l 0,0 c -1.74895,1.4991 -3.92265,2.4985 -7.02077,2.4985 l 0,0 c 1.24925,8.29502 -4.69718,14.54127 -13.39198,16.0154 l 0,0 c 3.09815,4.77215 0.24975,15.71557 -8.86967,18.71377 l 0,0 c 7.64542,7.4955 3.24805,17.5145 -1.9988,22.06175 l 0,0 c 1.74895,0.9994 3.29802,2.24865 4.4973,3.82273 l 0,0 c 3.47292,4.59722 4.44732,11.36817 3.07315,16.46512 l 0,0 c 9.21947,-1.24925 15.1909,8.84468 17.31462,16.86488 l 0,0 c 5.79653,16.54007 19.73815,27.95072 34.55178,36.8329 l 0,0 c 19.18847,11.4931 39.85107,18.76372 46.26472,27.42355 l 0,0 c 0.24975,0.4997 0.74955,0.9994 0.9994,1.4991 l 0,0 c 0.9994,1.74895 0.4997,3.19807 -0.9994,4.57225 l 0,0 -0.0575,15.71557 c 16.8149,-6.59605 28.85518,-13.26705 28.85518,-31.9933 l 0,0 c 0,-17.08975 -13.6418,-32.24815 -28.42045,-45.37277 l 0,0 c -13.9916,-12.41755 -29.01758,-23.0112 -34.52928,-31.71098 l 0,0 c -6.29622,-0.4997 -13.29202,-9.11955 -6.72097,-14.61625 l 0,0 c 10.4937,-8.71975 18.73875,8.09515 23.6858,13.367 l 0,0 c 1.4991,1.4991 3.8227,0.4997 4.997,-0.9994 l 0,0 c 6.79592,-7.97022 11.8429,-47.1692 -2.94823,-60.72107 l 0,0 c -1.74895,-1.4991 -3.79772,-2.89828 -6.14632,-3.6728 l 0,0 c -0.9994,-0.24975 -3.12313,0.4997 -3.87268,1.74895 l 0,0 c -0.0425,0.065 -0.09,0.1225 -0.1225,0.1925 l 0,0 c -3.27302,7.22067 0.74955,8.56987 -4.89707,17.23967 l 0,0 c -0.24975,0.4997 -1.74895,2.24865 -2.24865,0.9994 l 0,0 c -2.4985,-5.27185 -0.74955,-11.21827 3.94765,-15.1909 l 0,0 c -0.74955,-1.24925 -1.24925,-2.69837 -1.24925,-4.22245 l 0,0 c -0.74955,-5.04697 1.24925,-10.91845 4.02257,-12.89227 l 0,0 c -1.24925,-1.4991 -7.77032,-10.79353 -1.9988,-19.11353 l 0,0 c -5.37177,-2.79832 -10.96842,-7.64542 -8.54487,-17.36459 l 0,0 c -3.09813,1.74895 -12.94223,-1.24925 -14.44133,-11.9928 l 0,0 c -4.44732,1.24925 -12.6924,1.9988 -16.29022,-7.39555 l 0,0 c -5.1719,5.02197 -15.26585,4.22245 -18.23908,-2.59845 l 0,0 c -0.9994,5.022 -15.1659,11.56807 -13.86667,-0.4997 l 0,0 c -8.9696,11.14332 -13.29203,23.76075 -15.04098,37.69737 m 0.9994,8.12015 c 0,-2.8483 2.24865,-5.1719 5.1719,-5.1719 l 0,0 c 2.8483,0 5.1719,2.24865 5.1719,5.1719 l 0,0 c 0,2.84827 -2.24865,5.17187 -5.1719,5.17187 l 0,0 c -2.84827,0 -5.1719,-2.24865 -5.1719,-5.17187"
       style="fill:url(#linearGradient180);stroke:none"
       id="path186" />
    <g
       transform="matrix(3.3044373,0,0,-3.3044373,-331.75458,3561.8669)"
       id="g188">
      <g
         id="g190">
        <g
           id="g196">
          <g
             id="g198">
            <path
               inkscape:connector-curvature="0"
               d="m 192.22614,957.66986 c -0.444,-0.59 -0.863,-1.203 -1.249,-1.86 l 0,0 c -0.61,-1.038 -1.062,-2.013 -1.397,-2.931 l 0,0 c -1.734,-4.747 0.009,-7.923 3.261,-10.172 l 0,0 c 5.676,-3.934 15.909,-5.067 20.063,-6.957 l 0,0 c -0.001,-0.004 -0.001,-0.013 -0.003,-0.019 l 0,0 c 0.035,-0.01 0.072,-0.018 0.108,-0.03 l 0,0 c 0.035,-0.015 0.072,-0.031 0.107,-0.05 l 0,0 0.03,0.018 c 0.836,-0.226 1.664,-0.439 2.493,-0.658 l 0,0 c 0.614,-0.163 1.23,-0.329 1.844,-0.487 l 0,0 c 0.09,-0.026 0.178,-0.049 0.271,-0.073 l 0,0 c 0.366,-0.094 1.802,-0.412 2.788,-1.154 l 0,0 c 1.332,-1.003 2.769,-2.687 1.182,-4.793 l 0,0 c -0.743,-0.988 -2.44,-1.014 -3.362,-0.318 l 0,0 c -1.167,0.881 -1.266,2.22 -0.821,2.919 l 0,0 c 0.298,0.471 1.056,0.82 1.726,0.315 l 0,0 c 0.841,-0.636 0.788,-1.176 0.742,-1.78 l 0,0 c -0.018,-0.265 0.322,-0.329 0.468,-0.081 l 0,0 c 0.562,0.97 0.15,2.24 -0.552,2.77 l 0,0 c -0.56,0.422 -2.138,1.228 -3.413,-0.463 l 0,0 c -1.132,-1.499 -0.544,-3.619 0.966,-4.759 l 0,0 c 1.131,-0.855 2.183,-0.801 2.792,-0.747 l 0,0 c 0.185,0.016 0.329,0.032 0.423,0.024 l 0,0 c 0.344,-0.032 0.519,-0.066 0.671,-0.238 l 0,0 c 0.194,0.481 0.697,0.908 1.36,0.807 l 0,0 c -0.027,0.472 0.408,0.954 0.819,0.969 l 0,0 c -0.151,0.685 0.219,1.174 0.531,1.362 l 0,0 c -0.199,0.489 -0.157,0.998 0.207,1.406 l 0,0 c -0.398,0.299 -0.49,1.006 -0.186,1.406 l 0,0 c -0.419,0.213 -0.899,0.937 -0.552,1.393 l 0,0 c -0.637,0.137 -0.946,0.855 -0.72,1.308 l 0,0 c -0.532,0.12 -1.099,0.575 -1.071,1.137 l 0,0 c -0.999,0.014 -1.428,0.834 -1.437,1.126 l 0,0 c -0.411,-0.089 -0.739,0.021 -0.995,0.199 l 0,0 c -0.341,0.236 -0.542,0.593 -0.578,0.761 l 0,0 c -0.489,-0.1 -1.453,0.211 -1.602,1.135 l 0,0 c -0.137,-0.122 -0.325,-0.163 -0.52,-0.155 l 0,0 c -0.247,0.143 -0.518,0.281 -0.815,0.414 l 0,0 c -0.064,0.087 -0.122,0.179 -0.146,0.285 l 0,0 c 0,10e-4 -0.002,0.004 -0.004,0.004 l 0,0 c -0.049,-0.053 -0.101,-0.105 -0.15,-0.159 l 0,0 c -0.438,0.088 -0.863,0.175 -1.283,0.261 l 0,0 c -0.004,0.004 -0.012,0.004 -0.017,0.004 l 0,0 c -0.178,0.035 -0.353,0.076 -0.527,0.113 l 0,0 c -0.009,0.004 -0.02,0.004 -0.029,0.008 l 0,0 c -0.603,0.127 -1.191,0.258 -1.758,0.392 l 0,0 c -0.009,10e-4 -0.019,0.007 -0.029,0.007 l 0,0 c -0.168,0.04 -0.33,0.078 -0.492,0.117 l 0,0 c -0.153,0.036 -0.311,0.072 -0.46,0.11 l 0,0 c -0.084,0.02 -0.16,0.042 -0.241,0.062 l 0,0 c -0.533,0.135 -1.055,0.268 -1.558,0.404 l 0,0 c -0.07,0.021 -0.142,0.037 -0.21,0.056 l 0,0 c -0.53,0.147 -1.039,0.291 -1.531,0.439 l 0,0 c -0.08,0.024 -0.159,0.048 -0.238,0.069 l 0,0 c -0.492,0.15 -0.962,0.299 -1.418,0.452 l 0,0 c -0.082,0.024 -0.163,0.05 -0.24,0.075 l 0,0 c -0.45,0.153 -0.881,0.302 -1.298,0.456 l 0,0 c -0.072,0.026 -0.143,0.053 -0.213,0.078 l 0,0 c -0.415,0.153 -0.816,0.308 -1.198,0.462 l 0,0 c -0.055,0.024 -0.112,0.047 -0.17,0.069 l 0,0 c -0.387,0.16 -0.763,0.32 -1.12,0.479 l 0,0 c -0.033,0.016 -0.061,0.028 -0.093,0.045 l 0,0 c -0.757,0.342 -1.442,0.686 -2.058,1.027 l 0,0 c -0.011,0.008 -0.021,0.011 -0.033,0.018 l 0,0 c -0.3,0.165 -0.581,0.335 -0.849,0.499 l 0,0 c -0.023,0.014 -0.048,0.031 -0.072,0.045 l 0,0 c -0.259,0.162 -0.503,0.323 -0.736,0.485 l 0,0 c -0.023,0.016 -0.048,0.032 -0.072,0.049 l 0,0 c -0.227,0.157 -0.442,0.319 -0.646,0.478 l 0,0 c -0.018,0.012 -0.035,0.03 -0.055,0.045 l 0,0 c -0.202,0.158 -0.394,0.317 -0.569,0.479 l 0,0 c -0.008,0.006 -0.017,0.015 -0.028,0.025 l 0,0 c -0.741,0.668 -1.256,1.309 -1.591,1.904 l 0,0 -0.003,0.003 c 0,0 -0.002,0.003 -0.002,0.005 l 0,0 c -0.11,0.19 -0.201,0.377 -0.276,0.559 l 0,0 c -0.457,1.124 -0.285,2.032 0.085,2.553 l 0,0 c 0.246,0.338 0.495,0.657 0.746,0.978 l 0,0 0.272,1.17 2.024,8.619 c -1.963,-1.349 -3.785,-2.976 -5.293,-4.973"
               style="fill:url(#linearGradient3601);stroke:none"
               id="path206" />
          </g>
        </g>
      </g>
    </g>
  </g>
</svg>
